<svg width="19" height="15" viewBox="0 0 19 15" fill="none" xmlns="http://www.w3.org/2000/svg">
<path d="M7.88171 15C8.52182 15 9.04073 14.4639 9.04073 13.8026C9.04073 13.1413 8.52182 12.6052 7.88171 12.6052C7.2416 12.6052 6.72269 13.1413 6.72269 13.8026C6.72269 14.4639 7.2416 15 7.88171 15Z" fill="url(#paint0_linear_365_555)"/>
<path opacity="0.7" d="M6.16291 11.9665C6.47638 11.524 7.43329 11.6366 7.84988 11.3803C8.28002 11.107 8.98298 9.77688 9.17507 9.32276C9.55395 8.4279 10.8945 8.53626 12.4005 8.43947C15.6572 8.35729 15.0073 4.37368 13.1913 3.07706C10.2227 0.886798 4.53191 1.41336 2.04063 4.104C0.136222 5.87971 -0.826586 9.15535 0.902816 11.7255C1.96108 13.1913 5.03983 14.2883 6.16291 11.9659V11.9665Z" fill="url(#paint1_linear_365_555)"/>
<path opacity="0.8" d="M11.6799 10.8131C11.3493 10.3468 10.34 10.4649 9.90042 10.1946C9.44671 9.90604 8.81152 8.74638 8.56227 8.29165C7.64189 6.61335 6.4811 7.39863 5.10111 7.09304C1.74189 6.34915 2.35175 2.80505 4.26734 1.43721C7.39794 -0.872363 13.4005 -0.317189 16.0279 2.52016C18.0366 4.39265 19.0518 7.84788 17.2275 10.5586C16.1115 12.1048 12.8643 13.2614 11.6799 10.8125V10.8131Z" fill="url(#paint2_linear_365_555)"/>
<defs>
<linearGradient id="paint0_linear_365_555" x1="8.70133" y1="14.6494" x2="7.00871" y2="13.011" gradientUnits="userSpaceOnUse">
<stop stop-color="#3F81FF"/>
<stop offset="1" stop-color="#009CAA"/>
</linearGradient>
<linearGradient id="paint1_linear_365_555" x1="10.7748" y1="11.2415" x2="2.6932" y2="3.41887" gradientUnits="userSpaceOnUse">
<stop stop-color="#3F81FF" stop-opacity="0.6"/>
<stop offset="0.57" stop-color="#3F81FF" stop-opacity="0.82"/>
<stop offset="1" stop-color="#3F81FF"/>
</linearGradient>
<linearGradient id="paint2_linear_365_555" x1="3.39959" y1="7.92391" x2="17.7572" y2="4.79961" gradientUnits="userSpaceOnUse">
<stop stop-color="#009CAA"/>
<stop offset="1" stop-color="#009CAA" stop-opacity="0.6"/>
</linearGradient>
</defs>
</svg>
