<svg width="20" height="20" viewBox="0 0 20 20" fill="none" xmlns="http://www.w3.org/2000/svg">
<path fill-rule="evenodd" clip-rule="evenodd" d="M12.119 0.739934C10.9474 -0.246645 9.04793 -0.246645 7.87635 0.739934L1.06829 6.46948C0.390981 7.03949 0 7.87955 0 8.7648V15.9579C0 16.5873 0 17.0767 0.0287839 17.4737C0.0647054 17.9691 0.145456 18.3206 0.32698 18.6206C0.614601 19.096 1.07354 19.4824 1.63803 19.7246C1.99429 19.8775 2.41168 19.9455 3 19.9758C3.47142 20 4.05259 20 4.8 20H15.2C15.9474 20 16.5286 20 17 19.9758C17.5883 19.9455 18.0057 19.8775 18.362 19.7246C18.9265 19.4824 19.3854 19.096 19.673 18.6206C19.8545 18.3206 19.9353 17.9691 19.9712 17.4737C20 17.0767 20 16.5873 20 15.9579V8.76534C20 7.87978 19.6087 7.03946 18.931 6.46945L12.119 0.739934ZM2 9.46593C2 8.58099 2.3907 7.7412 3.0676 7.17119L9.29057 1.93084C9.68109 1.60198 10.3143 1.60198 10.7048 1.93084L16.9324 7.17511C17.6093 7.74512 18 8.58491 18 9.46985V17.4737C18 17.9388 17.5523 18.3158 17 18.3158H14C13.7239 18.3158 13.5 18.0919 13.5 17.8158V15.5C13.5 13.8431 12.1569 12.5 10.5 12.5H9.5C7.84315 12.5 6.5 13.8431 6.5 15.5V17.8158C6.5 18.0919 6.27614 18.3158 6 18.3158H3C2.44772 18.3158 2 17.9388 2 17.4737V9.46593ZM8.5 17.8158C8.5 18.0919 8.72386 18.3158 9 18.3158H11C11.2761 18.3158 11.5 18.0919 11.5 17.8158V15.5C11.5 14.9477 11.0523 14.5 10.5 14.5H9.5C8.94772 14.5 8.5 14.9477 8.5 15.5V17.8158Z" fill="black"/>
</svg>
