<svg width="55" height="38" viewBox="0 0 55 38" fill="none" xmlns="http://www.w3.org/2000/svg">
<g opacity="0.79">
<path d="M43.2472 37.0033C41.4215 37.0438 39.6175 36.601 38.018 35.7199C36.4184 34.8387 35.0802 33.5505 34.1387 31.9857C31.4863 32.2593 29.1145 31.6084 27.1483 30.0831C26.3195 29.433 25.5866 28.6692 24.9711 27.8144C24.0334 26.5052 23.3052 25.058 22.8127 23.5247C21.2975 23.2002 19.8758 22.5355 18.6552 21.5809C18.3448 21.3388 18.0476 21.0804 17.7646 20.8068C16.0748 19.1718 15.0241 17.0723 14.811 14.8871C14.7557 14.319 14.3784 9.26128 18.2178 6.8088C19.58 5.94275 21.1861 5.58136 22.8148 5.68388C23.3748 4.75508 24.5572 3.26636 26.6492 2.59893C29.1469 1.79969 31.2761 2.69422 32.214 3.21405C32.2619 3.19779 32.3098 3.18153 32.3549 3.16595C34.6683 2.45377 36.6312 3.15622 37.3649 3.49274C37.4811 3.54566 37.6105 3.60717 37.7433 3.67178C37.763 3.68093 37.778 3.68968 37.7949 3.69859C39.5164 4.56872 40.9878 5.8631 42.0704 7.45961C43.4427 7.77393 47.8917 9.10564 50.1689 13.5033C51.1948 15.5015 51.6115 17.7569 51.3674 19.9898C52.4306 21.2121 53.0423 22.7305 53.0128 24.3321C52.9678 26.663 51.5243 28.3204 50.6902 29.0895C50.7375 29.8509 50.6706 30.6151 50.4919 31.3568C50.4694 31.4542 50.4437 31.5459 50.4197 31.6395C49.5345 34.7566 46.5865 36.9636 43.2472 37.0033Z" fill="url(#paint0_linear_2095_1638)"/>
</g>
<path d="M38.1495 22.7205C37.02 23.8846 35.622 24.7536 34.0782 25.2512C33.4969 25.4379 32.8994 25.5698 32.2936 25.6453C31.0953 25.7894 29.8809 25.7146 28.7093 25.4247C27.114 27.3736 25.0928 28.5157 22.7608 28.8024C21.773 28.9176 20.7739 28.8928 19.793 28.7287C18.2936 28.4762 16.8427 27.9914 15.4926 27.2919C14.2606 28.0822 12.8652 28.5821 11.4117 28.7539C11.0445 28.7985 10.6753 28.8239 10.3055 28.83C8.08778 28.8618 5.9861 28.1518 4.38776 26.8307C3.97264 26.4867 0.353461 23.351 1.2932 19.154C1.62968 17.6665 2.46302 16.3536 3.62331 15.3407C3.38127 14.3464 3.1814 12.562 4.13887 10.7227C5.28013 8.52489 7.30076 7.70714 8.27484 7.4308C8.29616 7.38898 8.31463 7.34784 8.33788 7.30526C9.1129 5.8715 10.3789 4.76523 11.9036 4.18936C12.0169 4.14723 12.1436 4.10162 12.2767 4.05749L12.3283 4.04063C14.0614 3.47969 15.9086 3.36848 17.6964 3.71744C18.8248 3.0159 22.6902 0.946769 27.1427 2.37638C29.1593 3.03216 30.9391 4.26533 32.2614 5.92304C33.7872 6.03422 35.2069 6.64547 36.2538 7.73623C37.7746 9.32761 37.9104 11.3983 37.8633 12.4677C38.4022 12.9458 38.8667 13.5018 39.2414 14.1172C39.291 14.1978 39.3353 14.276 39.3805 14.3543C40.8639 17.0317 40.3584 20.473 38.1495 22.7205Z" fill="url(#paint1_linear_2095_1638)"/>
<defs>
<linearGradient id="paint0_linear_2095_1638" x1="43.7425" y1="42.168" x2="28.5263" y2="4.91951" gradientUnits="userSpaceOnUse">
<stop stop-color="#2282DB"/>
<stop offset="1" stop-color="#60AEF6"/>
</linearGradient>
<linearGradient id="paint1_linear_2095_1638" x1="8.32275" y1="35.1107" x2="24.5688" y2="11.8557" gradientUnits="userSpaceOnUse">
<stop stop-color="#348AEF"/>
<stop offset="1" stop-color="#5B99D2"/>
</linearGradient>
</defs>
</svg>
