<svg width="88" height="22" viewBox="0 0 88 22" fill="none" xmlns="http://www.w3.org/2000/svg">
<path d="M15.158 5.30175C16.0967 5.30175 16.9253 5.49241 17.644 5.87375C18.3773 6.24041 18.9493 6.81241 19.36 7.58975C19.7853 8.35241 19.998 9.33508 19.998 10.5377V17.3137H16.566V11.0657C16.566 10.1124 16.368 9.40841 15.972 8.95375C15.576 8.49908 15.0187 8.27175 14.3 8.27175C13.8013 8.27175 13.354 8.38908 12.958 8.62375C12.562 8.84375 12.254 9.18108 12.034 9.63575C11.814 10.0904 11.704 10.6697 11.704 11.3737V17.3137H8.272V11.0657C8.272 10.1124 8.074 9.40841 7.678 8.95375C7.29667 8.49908 6.74667 8.27175 6.028 8.27175C5.52933 8.27175 5.082 8.38908 4.686 8.62375C4.29 8.84375 3.982 9.18108 3.762 9.63575C3.542 10.0904 3.432 10.6697 3.432 11.3737V17.3137H0V5.47775H3.278V8.71175L2.662 7.76575C3.07267 6.95908 3.652 6.35041 4.4 5.93975C5.16267 5.51441 6.028 5.30175 6.996 5.30175C8.08133 5.30175 9.02733 5.58041 9.834 6.13775C10.6553 6.68041 11.198 7.51641 11.462 8.64575L10.252 8.31575C10.648 7.39175 11.2787 6.65841 12.144 6.11575C13.024 5.57308 14.0287 5.30175 15.158 5.30175Z" fill="black"/>
<path d="M23.0742 17.3137V5.47775H26.5062V17.3137H23.0742Z" fill="black"/>
<path d="M36.8854 5.30175C37.8241 5.30175 38.6601 5.49241 39.3934 5.87375C40.1414 6.24041 40.7281 6.81241 41.1534 7.58975C41.5787 8.35241 41.7914 9.33508 41.7914 10.5377V17.3137H38.3594V11.0657C38.3594 10.1124 38.1467 9.40841 37.7214 8.95375C37.3107 8.49908 36.7241 8.27175 35.9614 8.27175C35.4187 8.27175 34.9274 8.38908 34.4874 8.62375C34.0621 8.84375 33.7247 9.18841 33.4754 9.65775C33.2407 10.1271 33.1234 10.7284 33.1234 11.4617V17.3137H29.6914V5.47775H32.9694V8.75575L32.3534 7.76575C32.7787 6.97375 33.3874 6.36508 34.1794 5.93975C34.9714 5.51441 35.8734 5.30175 36.8854 5.30175Z" fill="black"/>
<path d="M50.0703 17.4897C48.9556 17.4897 47.9509 17.2404 47.0563 16.7417C46.1616 16.2284 45.4503 15.5171 44.9223 14.6077C44.4089 13.6984 44.1523 12.6277 44.1523 11.3957C44.1523 10.1491 44.4089 9.07108 44.9223 8.16175C45.4503 7.25241 46.1616 6.54841 47.0563 6.04975C47.9509 5.55108 48.9556 5.30175 50.0703 5.30175C51.0676 5.30175 51.9403 5.52175 52.6883 5.96175C53.4363 6.40175 54.0156 7.06908 54.4263 7.96375C54.8369 8.85841 55.0423 10.0024 55.0423 11.3957C55.0423 12.7744 54.8443 13.9184 54.4483 14.8277C54.0523 15.7224 53.4803 16.3897 52.7323 16.8297C51.9989 17.2697 51.1116 17.4897 50.0703 17.4897ZM50.6643 14.6737C51.2216 14.6737 51.7276 14.5417 52.1823 14.2777C52.6369 14.0137 52.9963 13.6397 53.2603 13.1557C53.5389 12.6571 53.6783 12.0704 53.6783 11.3957C53.6783 10.7064 53.5389 10.1197 53.2603 9.63575C52.9963 9.15175 52.6369 8.77775 52.1823 8.51375C51.7276 8.24975 51.2216 8.11775 50.6643 8.11775C50.0923 8.11775 49.5789 8.24975 49.1243 8.51375C48.6696 8.77775 48.3029 9.15175 48.0243 9.63575C47.7603 10.1197 47.6283 10.7064 47.6283 11.3957C47.6283 12.0704 47.7603 12.6571 48.0243 13.1557C48.3029 13.6397 48.6696 14.0137 49.1243 14.2777C49.5789 14.5417 50.0923 14.6737 50.6643 14.6737ZM53.7663 17.3137V14.8937L53.8323 11.3737L53.6123 7.87575V0.989746H57.0443V17.3137H53.7663Z" fill="black"/>
<path d="M65.3027 17.4897C64.188 17.4897 63.1834 17.2404 62.2887 16.7417C61.394 16.2284 60.6827 15.5171 60.1547 14.6077C59.6414 13.6984 59.3847 12.6277 59.3847 11.3957C59.3847 10.1491 59.6414 9.07108 60.1547 8.16175C60.6827 7.25241 61.394 6.54841 62.2887 6.04975C63.1834 5.55108 64.188 5.30175 65.3027 5.30175C66.3 5.30175 67.1727 5.52175 67.9207 5.96175C68.6687 6.40175 69.248 7.06908 69.6587 7.96375C70.0694 8.85841 70.2747 10.0024 70.2747 11.3957C70.2747 12.7744 70.0767 13.9184 69.6807 14.8277C69.2847 15.7224 68.7127 16.3897 67.9647 16.8297C67.2314 17.2697 66.344 17.4897 65.3027 17.4897ZM65.8967 14.6737C66.454 14.6737 66.96 14.5417 67.4147 14.2777C67.8694 14.0137 68.2287 13.6397 68.4927 13.1557C68.7714 12.6571 68.9107 12.0704 68.9107 11.3957C68.9107 10.7064 68.7714 10.1197 68.4927 9.63575C68.2287 9.15175 67.8694 8.77775 67.4147 8.51375C66.96 8.24975 66.454 8.11775 65.8967 8.11775C65.3247 8.11775 64.8114 8.24975 64.3567 8.51375C63.902 8.77775 63.5354 9.15175 63.2567 9.63575C62.9927 10.1197 62.8607 10.7064 62.8607 11.3957C62.8607 12.0704 62.9927 12.6571 63.2567 13.1557C63.5354 13.6397 63.902 14.0137 64.3567 14.2777C64.8114 14.5417 65.3247 14.6737 65.8967 14.6737ZM68.9987 17.3137V14.8937L69.0647 11.3737L68.8447 7.87575V0.989746H72.2767V17.3137H68.9987Z" fill="black"/>
<path d="M76.9491 21.7577C76.3331 21.7577 75.7245 21.6624 75.1231 21.4717C74.5218 21.2811 74.0305 21.0171 73.6491 20.6797L74.9031 18.2377C75.1671 18.4724 75.4678 18.6557 75.8051 18.7877C76.1571 18.9197 76.5018 18.9857 76.8391 18.9857C77.3231 18.9857 77.7045 18.8684 77.9831 18.6337C78.2765 18.4137 78.5405 18.0397 78.7751 17.5117L79.3911 16.0597L79.6551 15.6857L83.9011 5.47775H87.2011L81.8551 18.0397C81.4738 18.9931 81.0338 19.7411 80.5351 20.2837C80.0511 20.8264 79.5085 21.2077 78.9071 21.4277C78.3205 21.6477 77.6678 21.7577 76.9491 21.7577ZM78.9731 17.7757L73.6931 5.47775H77.2351L81.3271 15.3777L78.9731 17.7757Z" fill="black"/>
<path d="M23.2502 3.278C23.6462 3.64467 24.1596 3.828 24.7902 3.828C25.4356 3.828 25.9489 3.64467 26.3302 3.278C26.7262 2.89667 26.9242 2.42 26.9242 1.848C26.9242 1.30533 26.7262 0.865334 26.3302 0.528001C25.9342 0.176 25.4209 0 24.7902 0C24.1596 0 23.6462 0.183334 23.2502 0.550001C22.8542 0.916667 22.6562 1.37133 22.6562 1.914C22.6562 2.45667 22.8542 2.91133 23.2502 3.278Z" fill="#2282DB"/>
</svg>
