<?xml version="1.0" encoding="UTF-8"?>
<svg id="Calque_1" data-name="Calque 1" xmlns="http://www.w3.org/2000/svg" viewBox="0 0 500 500">
  <g>
    <path fill="FFF" d="M437.23,225c0,14.34.34,28.69-.08,43.02-.7,24.06-11.74,42.6-32.25,54.85-27.53,16.44-55.44,32.25-83.3,48.15-9.82,5.6-19.3,11.86-29.63,16.54-14.19,6.42-25.38-.19-26.4-15.79-.5-7.57-.28-15.2-.29-22.8-.03-21.37.1-42.74-.03-64.11-.17-27.93,11.97-48.39,36.27-62.18,32.87-18.65,65.48-37.73,98.22-56.61,3.47-2,6.9-4.16,10.55-5.77,14.72-6.51,26.5.81,26.82,16.94.32,15.91.07,31.84.07,47.76h.05Z"/>
    <path fill="FFF" d="M62.12,225c0,14.34-.34,28.69.08,43.02.7,24.06,11.74,42.6,32.25,54.85,27.53,16.44,55.44,32.25,83.3,48.15,9.82,5.6,19.3,11.86,29.63,16.54,14.19,6.42,25.38-.19,26.4-15.79.5-7.57.28-15.2.29-22.8.03-21.37-.1-42.74.03-64.11.17-27.93-11.97-48.39-36.27-62.18-32.87-18.65-65.48-37.73-98.22-56.61-3.47-2-6.9-4.16-10.55-5.77-14.72-6.51-26.5.81-26.82,16.94-.32,15.91-.07,31.84-.07,47.76h-.05Z"/>
    <circle fill="FFF" cx="250" cy="169" r="36"/>
  </g>
</svg>